<?xml version="1.0" encoding="UTF-8" standalone="no"?>
<!-- Created with Inkscape (http://www.inkscape.org/) -->

<svg
   xmlns:dc="http://purl.org/dc/elements/1.1/"
   xmlns:cc="http://creativecommons.org/ns#"
   xmlns:rdf="http://www.w3.org/1999/02/22-rdf-syntax-ns#"
   xmlns:svg="http://www.w3.org/2000/svg"
   xmlns="http://www.w3.org/2000/svg"
   xmlns:sodipodi="http://sodipodi.sourceforge.net/DTD/sodipodi-0.dtd"
   xmlns:inkscape="http://www.inkscape.org/namespaces/inkscape"
   width="242.62469mm"
   height="71.247986mm"
   viewBox="0 0 859.6938 252.45349"
   id="svg2"
   version="1.1"
   inkscape:version="0.91 r13725"
   sodipodi:docname="logo2.svg">
  <defs
     id="defs4">
    <defs
       id="defs39">
      <linearGradient
         gradientUnits="userSpaceOnUse"
         y2="655.25891"
         x2="162.39075"
         y1="655.25891"
         x1="55.296619"
         gradientTransform="scale(2.4401076,0.40981799)"
         id="grad2">
        <stop
           offset="0.0000%"
           stop-color="#006c83"
           stop-opacity="1.0000"
           id="stop22" />
        <stop
           offset="12.0000%"
           stop-color="#ffffff"
           stop-opacity="1.0000"
           id="stop24" />
        <stop
           offset="0.0000%"
           stop-color="#d6d6d6"
           stop-opacity="1.0000"
           id="stop26" />
        <stop
           offset="83886848.0000%"
           stop-color="#ffffff"
           stop-opacity="1.0000"
           id="stop28" />
        <stop
           offset="0.0000%"
           stop-color="#ffffff"
           stop-opacity="1.0000"
           id="stop30" />
        <stop
           offset="5.0000%"
           stop-color="#ffffff"
           stop-opacity="1.0000"
           id="stop32" />
        <stop
           offset="0.0000%"
           stop-color="#000000"
           stop-opacity="1.0000"
           id="stop34" />
        <stop
           offset="3539992576.0000%"
           stop-color="#ffffff"
           stop-opacity="1.0000"
           id="stop36" />
      </linearGradient>
    </defs>
  </defs>
  <sodipodi:namedview
     id="base"
     pagecolor="#ffffff"
     bordercolor="#666666"
     borderopacity="1.0"
     inkscape:pageopacity="0.0"
     inkscape:pageshadow="2"
     inkscape:zoom="0.7"
     inkscape:cx="129.73059"
     inkscape:cy="148.78935"
     inkscape:document-units="px"
     inkscape:current-layer="layer1"
     showgrid="false"
     inkscape:window-width="1920"
     inkscape:window-height="1056"
     inkscape:window-x="0"
     inkscape:window-y="24"
     inkscape:window-maximized="1"
     inkscape:snap-page="true"
     inkscape:snap-grids="true"
     fit-margin-top="0"
     fit-margin-left="0"
     fit-margin-right="0"
     fit-margin-bottom="0" />
  <metadata
     id="metadata7">
    <rdf:RDF>
      <cc:Work
         rdf:about="">
        <dc:format>image/svg+xml</dc:format>
        <dc:type
           rdf:resource="http://purl.org/dc/dcmitype/StillImage" />
        <dc:title></dc:title>
      </cc:Work>
    </rdf:RDF>
  </metadata>
  <g
     inkscape:label="Capa 1"
     inkscape:groupmode="layer"
     id="layer1"
     transform="translate(-84.746353,-431.65483)">
    <g
       style="fill:#53c3b3;fill-opacity:0.85936776"
       id="Layer1001"
       transform="matrix(1.1382769,0,0,1.1686937,-69.041003,379.55131)">
      <defs
         id="defs13">
        <linearGradient
           gradientUnits="userSpaceOnUse"
           y2="49.22464"
           x2="360.76279"
           y1="49.22464"
           x1="122.56651"
           gradientTransform="scale(1.1041197,0.90569889)"
           id="grad1">
          <stop
             offset="0.0000%"
             stop-color="#006c83"
             stop-opacity="1.0000"
             id="stop2" />
          <stop
             offset="12.0000%"
             stop-color="#ffffff"
             stop-opacity="1.0000"
             id="stop4" />
          <stop
             offset="0.0000%"
             stop-color="#d6d6d6"
             stop-opacity="1.0000"
             id="stop6" />
          <stop
             offset="83890432.0000%"
             stop-color="#ffffff"
             stop-opacity="1.0000"
             id="stop8" />
          <stop
             offset="0.0000%"
             stop-color="#ffffff"
             stop-opacity="1.0000"
             id="stop10" />
        </linearGradient>
      </defs>
      <path
         d="m 398.3253,260.3168 -262.9972,0 131.4993,-215.7341 z"
         style="fill:#53c3b3;fill-opacity:0.85936776"
         id="path15"
         inkscape:connector-curvature="0" />
      <path
         d="M 243.611,260.5961 243.5932,78.3812 352.0815,260.5961 Z"
         style="fill:#53c3b3;fill-opacity:0.85936776;fill-rule:evenodd"
         id="path17"
         inkscape:connector-curvature="0" />
      <path
         d="M 243.5759,260.5961 243.5937,78.3812 135.1054,260.5961 Z"
         style="fill:#53c3b3;fill-opacity:0.85936776;fill-rule:evenodd"
         id="path19"
         inkscape:connector-curvature="0" />
    </g>
    <path
       d="m 391.30735,574.45201 26.77977,0 -13.41347,-30.83789 z m -20.0374,27.8384 37.79698,-86.23419 39.29855,86.23419 -18.15724,0 -9.58516,-22.53012 -31.71198,0 -9.48953,22.53012 z m 145.33653,-6.34456 0,6.34456 -56.94126,0 0,-84.5519 17.05487,0 0,78.20734 z m 7.28303,-78.20734 17.05333,0 0,51.05927 c 0,9.94815 1.52768,16.87608 4.55715,20.78232 3.03121,3.90604 8.1516,5.84809 15.36335,5.84809 7.1874,0 12.30931,-1.94205 15.31618,-5.84809 3.00667,-3.90624 4.50999,-10.83417 4.50999,-20.78232 l 0,-51.05927 8.17443,0 0,53.90805 c 0,10.89822 -2.70157,19.07744 -8.08013,24.53643 -5.40311,5.46019 -13.50753,8.17924 -24.33658,8.17924 -4.81528,0 -9.4437,-0.79815 -13.85981,-2.39543 -4.44022,-1.59728 -8.0801,-3.79865 -10.9229,-6.58194 -2.79566,-2.69806 -4.79247,-5.78381 -5.99071,-9.25763 -1.19824,-3.47503 -1.7843,-8.28662 -1.7843,-14.48067 z m 112.66016,86.62372 -38.21902,-86.62372 18.06472,0 24.50042,57.62026 23.25527,-57.62026 8.87892,0 z m 64.83338,-2.07182 -16.91231,0 0,-84.5519 16.91231,0 z m 31.45379,-27.8384 26.77979,0 -13.41346,-30.83789 z m -20.03738,27.8384 37.797,-86.23419 39.29854,86.23419 -18.15723,0 -9.58519,-22.53012 -31.71197,0 -9.48956,22.53012 z m 160.62992,-20.02609 c -3.57013,7.12173 -8.57384,12.58073 -14.98653,16.37939 -6.39012,3.81978 -13.83725,5.71852 -22.33955,5.71852 -12.61463,0 -23.11555,-4.14343 -31.45381,-12.45241 -8.36284,-8.30756 -12.54488,-18.9253 -12.54488,-31.85202 0,-12.60292 4.27483,-23.11204 12.84997,-31.52843 8.54947,-8.39402 19.1673,-12.60292 31.82909,-12.60292 7.72787,0 14.42329,1.44513 20.08436,4.35942 5.66126,2.91306 10.35964,7.27247 14.07101,13.07744 l -5.4972,3.53931 c -2.84128,-5.13659 -6.36577,-8.99973 -10.57064,-11.56661 -4.20489,-2.56829 -9.043,-3.84196 -14.56302,-3.84196 -9.23293,0 -16.53856,3.49601 -21.94167,10.48818 -5.37876,7.01295 -8.08031,16.55227 -8.08031,28.65869 0,11.6752 2.5603,20.739 7.70524,27.19119 5.14498,6.45218 12.35649,9.66767 21.63483,9.66767 6.20193,0 11.69759,-1.57491 16.49009,-4.70417 4.79247,-3.15142 8.71505,-7.74801 11.74607,-13.81251 z m 14.0695,20.02609 0,-84.5519 56.94125,0 0,6.34481 -39.88638,0 0,30.94669 37.06791,0 0,6.34477 -37.06791,0 0,34.57107 39.88638,0 0,6.34456 z"
       style="fill:#53c3b3;fill-opacity:0.85936776"
       id="path41"
       inkscape:connector-curvature="0" />
  </g>
</svg>
