<?xml version="1.0" encoding="UTF-8" standalone="no"?>
<!-- Creator: CorelDRAW X7 -->

<svg
   xmlns:dc="http://purl.org/dc/elements/1.1/"
   xmlns:cc="http://creativecommons.org/ns#"
   xmlns:rdf="http://www.w3.org/1999/02/22-rdf-syntax-ns#"
   xmlns:svg="http://www.w3.org/2000/svg"
   xmlns="http://www.w3.org/2000/svg"
   xmlns:sodipodi="http://sodipodi.sourceforge.net/DTD/sodipodi-0.dtd"
   xmlns:inkscape="http://www.inkscape.org/namespaces/inkscape"
   xml:space="preserve"
   width="93.3535mm"
   height="93.060074mm"
   version="1.1"
   style="clip-rule:evenodd;fill-rule:evenodd;image-rendering:optimizeQuality;shape-rendering:geometricPrecision;text-rendering:geometricPrecision"
   viewBox="0 0 9335.3499 9306.0074"
   id="svg2"
   inkscape:version="0.91 r13725"
   sodipodi:docname="logo aluviace.svg"><metadata
     id="metadata67"><rdf:RDF><cc:Work
         rdf:about=""><dc:format>image/svg+xml</dc:format><dc:type
           rdf:resource="http://purl.org/dc/dcmitype/StillImage" /><dc:title></dc:title></cc:Work></rdf:RDF></metadata><sodipodi:namedview
     pagecolor="#ffffff"
     bordercolor="#666666"
     borderopacity="1"
     objecttolerance="10"
     gridtolerance="10"
     guidetolerance="10"
     inkscape:pageopacity="0"
     inkscape:pageshadow="2"
     inkscape:window-width="1440"
     inkscape:window-height="815"
     id="namedview65"
     showgrid="false"
     fit-margin-top="0"
     fit-margin-left="0"
     fit-margin-right="0"
     fit-margin-bottom="0"
     inkscape:zoom="1.45"
     inkscape:cx="160.72166"
     inkscape:cy="191.11339"
     inkscape:window-x="0"
     inkscape:window-y="0"
     inkscape:window-maximized="1"
     inkscape:current-layer="svg2" /><defs
     id="defs4"><style
       type="text/css"
       id="style6"><![CDATA[
    .fil1 {fill:white}
    .fil2 {fill:url(#id4);fill-rule:nonzero}
    .fil0 {fill:url(#id5);fill-rule:nonzero}
   ]]></style><mask
       id="id0"><linearGradient
         id="id1"
         gradientUnits="userSpaceOnUse"
         x1="13332.3"
         y1="7502.4902"
         x2="7681.8101"
         y2="4455.8701"><stop
           offset="0"
           style="stop-opacity:1; stop-color:white"
           id="stop10" /><stop
           offset="1"
           style="stop-opacity:0; stop-color:white"
           id="stop12" /></linearGradient><rect
         style="fill:url(#id1)"
         x="8593"
         y="2765"
         width="3828"
         height="6429"
         id="rect14" /></mask><mask
       id="id2"><linearGradient
         id="id3"
         gradientUnits="userSpaceOnUse"
         x1="6133.4102"
         y1="5863.23"
         x2="7226.27"
         y2="6095.1299"><stop
           offset="0"
           style="stop-opacity:1; stop-color:white"
           id="stop18" /><stop
           offset="1"
           style="stop-opacity:0; stop-color:white"
           id="stop20" /></linearGradient><rect
         style="fill:url(#id3)"
         x="4766"
         y="2765"
         width="3828"
         height="6429"
         id="rect22" /></mask><linearGradient
       id="id4"
       gradientUnits="userSpaceOnUse"
       x1="4760.02"
       y1="10247.5"
       x2="13978.9"
       y2="10247.5"
       gradientTransform="matrix(0.98672558,0,0,0.95950964,-4458.0862,-1269.7083)"><stop
         offset="0"
         style="stop-opacity:1; stop-color:#1C7186"
         id="stop25" /><stop
         offset="0.121569"
         style="stop-opacity:1; stop-color:#1C7186"
         id="stop27" /><stop
         offset="0.25098"
         style="stop-opacity:1; stop-color:#B1E1EE"
         id="stop29" /><stop
         offset="0.321569"
         style="stop-opacity:1; stop-color:#1C7186"
         id="stop31" /><stop
         offset="0.788235"
         style="stop-opacity:1; stop-color:#1C7186"
         id="stop33" /><stop
         offset="0.878431"
         style="stop-opacity:1; stop-color:#B1E1EE"
         id="stop35" /><stop
         offset="0.94902"
         style="stop-opacity:1; stop-color:#1E5766"
         id="stop37" /><stop
         offset="1"
         style="stop-opacity:1; stop-color:#1C7186"
         id="stop39" /></linearGradient><linearGradient
       id="id5"
       gradientUnits="userSpaceOnUse"
       x1="4774.0801"
       y1="5378.1099"
       x2="14052"
       y2="5378.1099"><stop
         offset="0"
         style="stop-opacity:1; stop-color:#1C7186"
         id="stop42" /><stop
         offset="0.258824"
         style="stop-opacity:1; stop-color:#1C7186"
         id="stop44" /><stop
         offset="0.490196"
         style="stop-opacity:1; stop-color:#B1E1EE"
         id="stop46" /><stop
         offset="0.568627"
         style="stop-opacity:1; stop-color:#1C7186"
         id="stop48" /><stop
         offset="1"
         style="stop-opacity:1; stop-color:#1C7186"
         id="stop50" /></linearGradient></defs><g
     id="g55"
     transform="translate(-4766,-1573)"><polygon
       class="fil0"
       points="4774,9183 9413,1573 14052,9183 "
       id="polygon57"
       style="fill:url(#id5);fill-rule:nonzero" /><polygon
       class="fil1"
       style="fill:#ffffff"
       points="8593,2765 12421,9193 8594,9193 "
       id="polygon59"
       mask="url(#id0)" /><polygon
       class="fil1"
       style="fill:#ffffff"
       points="8593,2765 4766,9193 8593,9193 "
       id="polygon61"
       mask="url(#id2)" /></g><path
     class="fil2"
     d="m 556.45284,8803.224 425.27872,0 -213.1326,-518.1351 -212.14612,518.1351 z m -317.72557,467.2812 599.92917,-1447.8999 623.61066,1447.8999 -288.1236,0 -151.9561,-378.0468 -503.23002,0 -150.96906,378.0468 -129.26105,0 z m 2306.96473,-106.5055 0,106.5055 -903.8414,0 0,-1420.0741 270.3621,0 0,1313.5686 633.4793,0 z m 115.4465,-1313.5686 270.362,0 0,857.8015 c 0,166.9546 24.6684,284.0149 72.0316,349.2615 48.3496,65.2466 129.2608,97.87 243.7208,97.87 114.46,0 195.372,-32.6234 243.7216,-97.87 47.3623,-65.2466 71.0443,-182.3069 71.0443,-349.2615 l 0,-857.8015 130.2473,0 0,905.7769 c 0,183.2664 -43.4158,320.4763 -128.2744,411.6297 -85.845,92.1129 -214.1194,138.1694 -386.7958,138.1694 -75.9782,0 -148.9962,-13.4332 -220.0405,-40.2994 -70.0571,-26.8663 -127.287,-64.2872 -172.6764,-110.3436 -44.4031,-46.0565 -75.9783,-97.87 -95.7128,-156.4001 -18.7473,-57.5706 -27.6277,-139.1289 -27.6277,-242.756 l 0,-905.7769 z m 1787.9465,1455.576 -606.8364,-1455.576 287.1374,0 388.7695,968.1451 369.0359,-968.1451 141.1013,0 -579.2077,1455.576 z m 1029.1546,-35.5019 -268.3892,0 0,-1420.0741 268.3892,0 0,1420.0741 z m 498.2949,-467.2812 425.2802,0 -213.1337,-518.1351 -212.1465,518.1351 z m -317.7244,467.2812 599.9279,-1447.8999 623.6116,1447.8999 -288.1238,0 -151.9555,-378.0468 -503.2312,0 -150.969,378.0468 -129.26,0 z m 2549.6992,-335.8283 c -57.23,119.9386 -136.1683,211.0921 -237.8013,275.3792 -101.6321,63.3276 -220.0396,95.951 -355.2207,95.951 -200.3058,0 -366.0757,-70.0442 -499.2838,-209.1731 -132.2209,-140.0884 -198.3313,-318.5572 -198.3313,-535.4064 0,-212.0515 67.0969,-388.6012 203.2652,-529.6492 136.1683,-141.0479 304.8982,-212.0516 505.2033,-212.0516 123.3412,0 228.9209,24.9472 318.7125,73.8822 89.7924,48.9351 164.7833,121.8578 223.987,219.7277 l -87.8187,59.4897 c -44.4031,-86.3559 -100.6457,-151.6025 -167.7435,-194.7805 -66.1105,-43.1779 -143.0751,-64.2871 -230.8938,-64.2871 -146.0352,0 -262.4689,58.53 -348.3139,175.5902 -84.8587,118.0197 -128.2744,278.2578 -128.2744,481.6737 0,196.6995 40.4557,348.3021 122.354,456.7266 81.8985,108.4245 196.3586,163.1166 343.3802,163.1166 98.6728,0 185.5043,-26.8662 261.4825,-79.6393 75.9781,-52.7731 138.142,-129.5338 186.4916,-232.2014 l 88.8051,55.6517 z m 222.9998,335.8283 0,-1420.0741 903.8408,0 0,106.5056 -633.4779,0 0,520.0541 589.0748,0 0,106.5055 -589.0748,0 0,580.5034 633.4779,0 0,106.5055 -903.8408,0 z"
     id="path63"
     style="fill:url(#id4);fill-rule:nonzero"
     inkscape:connector-curvature="0" /></svg>