<?xml version="1.0" encoding="UTF-8" standalone="no"?>
<!-- Creator: CorelDRAW X7 -->

<svg
   xmlns:dc="http://purl.org/dc/elements/1.1/"
   xmlns:cc="http://creativecommons.org/ns#"
   xmlns:rdf="http://www.w3.org/1999/02/22-rdf-syntax-ns#"
   xmlns:svg="http://www.w3.org/2000/svg"
   xmlns="http://www.w3.org/2000/svg"
   xmlns:sodipodi="http://sodipodi.sourceforge.net/DTD/sodipodi-0.dtd"
   xmlns:inkscape="http://www.inkscape.org/namespaces/inkscape"
   xml:space="preserve"
   width="193.591mm"
   height="76.199997mm"
   version="1.1"
   style="clip-rule:evenodd;fill-rule:evenodd;image-rendering:optimizeQuality;shape-rendering:geometricPrecision;text-rendering:geometricPrecision"
   viewBox="0 0 19359.1 7619.9997"
   id="svg2"
   inkscape:version="0.91 r13725"
   sodipodi:docname="logo aluviace.svg"><metadata
     id="metadata67"><rdf:RDF><cc:Work
         rdf:about=""><dc:format>image/svg+xml</dc:format><dc:type
           rdf:resource="http://purl.org/dc/dcmitype/StillImage" /><dc:title></dc:title></cc:Work></rdf:RDF></metadata><sodipodi:namedview
     pagecolor="#ffffff"
     bordercolor="#666666"
     borderopacity="1"
     objecttolerance="10"
     gridtolerance="10"
     guidetolerance="10"
     inkscape:pageopacity="0"
     inkscape:pageshadow="2"
     inkscape:window-width="1920"
     inkscape:window-height="1047"
     id="namedview65"
     showgrid="false"
     fit-margin-top="0"
     fit-margin-left="0"
     fit-margin-right="0"
     fit-margin-bottom="0"
     inkscape:zoom="1.45"
     inkscape:cx="298.30443"
     inkscape:cy="94.618553"
     inkscape:window-x="0"
     inkscape:window-y="33"
     inkscape:window-maximized="1"
     inkscape:current-layer="svg2" /><defs
     id="defs4"><style
       type="text/css"
       id="style6"><![CDATA[
    .fil1 {fill:white}
    .fil2 {fill:url(#id4);fill-rule:nonzero}
    .fil0 {fill:url(#id5);fill-rule:nonzero}
   ]]></style><mask
       id="id0"><linearGradient
         id="id1"
         gradientUnits="userSpaceOnUse"
         x1="13332.3"
         y1="7502.4902"
         x2="7681.8101"
         y2="4455.8701"><stop
           offset="0"
           style="stop-opacity:1; stop-color:white"
           id="stop10" /><stop
           offset="1"
           style="stop-opacity:0; stop-color:white"
           id="stop12" /></linearGradient><rect
         style="fill:url(#id1)"
         x="8593"
         y="2765"
         width="3828"
         height="6429"
         id="rect14" /></mask><mask
       id="id2"><linearGradient
         id="id3"
         gradientUnits="userSpaceOnUse"
         x1="6133.4102"
         y1="5863.23"
         x2="7226.27"
         y2="6095.1299"><stop
           offset="0"
           style="stop-opacity:1; stop-color:white"
           id="stop18" /><stop
           offset="1"
           style="stop-opacity:0; stop-color:white"
           id="stop20" /></linearGradient><rect
         style="fill:url(#id3)"
         x="4766"
         y="2765"
         width="3828"
         height="6429"
         id="rect22" /></mask><linearGradient
       id="id4"
       gradientUnits="userSpaceOnUse"
       x1="4760.02"
       y1="10247.5"
       x2="13978.9"
       y2="10247.5"
       gradientTransform="matrix(1.1963462,0,0,1.1633485,2635.3776,-8111.4142)"><stop
         offset="0"
         style="stop-opacity:1; stop-color:#1C7186"
         id="stop25" /><stop
         offset="0.121569"
         style="stop-opacity:1; stop-color:#1C7186"
         id="stop27" /><stop
         offset="0.25098"
         style="stop-opacity:1; stop-color:#B1E1EE"
         id="stop29" /><stop
         offset="0.321569"
         style="stop-opacity:1; stop-color:#1C7186"
         id="stop31" /><stop
         offset="0.788235"
         style="stop-opacity:1; stop-color:#1C7186"
         id="stop33" /><stop
         offset="0.878431"
         style="stop-opacity:1; stop-color:#B1E1EE"
         id="stop35" /><stop
         offset="0.94902"
         style="stop-opacity:1; stop-color:#1E5766"
         id="stop37" /><stop
         offset="1"
         style="stop-opacity:1; stop-color:#1C7186"
         id="stop39" /></linearGradient><linearGradient
       id="id5"
       gradientUnits="userSpaceOnUse"
       x1="4774.0801"
       y1="5378.1099"
       x2="14052"
       y2="5378.1099"><stop
         offset="0"
         style="stop-opacity:1; stop-color:#1C7186"
         id="stop42" /><stop
         offset="0.258824"
         style="stop-opacity:1; stop-color:#1C7186"
         id="stop44" /><stop
         offset="0.490196"
         style="stop-opacity:1; stop-color:#B1E1EE"
         id="stop46" /><stop
         offset="0.568627"
         style="stop-opacity:1; stop-color:#1C7186"
         id="stop48" /><stop
         offset="1"
         style="stop-opacity:1; stop-color:#1C7186"
         id="stop50" /></linearGradient></defs><g
     id="g55"
     transform="translate(-4766.0009,-1573.0004)"><polygon
       class="fil0"
       points="4774,9183 9413,1573 14052,9183 "
       id="polygon57"
       style="fill:url(#id5);fill-rule:nonzero" /><polygon
       class="fil1"
       style="fill:#ffffff"
       points="8593,2765 12421,9193 8594,9193 "
       id="polygon59"
       mask="url(#id0)" /><polygon
       class="fil1"
       style="fill:#ffffff"
       points="8593,2765 4766,9193 8593,9193 "
       id="polygon61"
       mask="url(#id2)" /></g><path
     class="fil2"
     d="m 8715.2086,4101.4184 515.625,0 -258.411,-628.208 -257.214,628.208 z m -385.224,566.5507 727.379,-1755.4927 756.0906,1755.4927 -349.3328,0 -184.2378,-458.3593 -610.136,0 -183.041,458.3593 -156.722,0 z m 2797.0584,-129.1316 0,129.1316 -1095.854,0 0,-1721.7555 327.798,0 0,1592.6239 768.056,0 z m 139.972,-1592.6239 327.798,0 0,1040.0333 c 0,202.4226 29.909,344.3512 87.334,423.4589 58.621,79.1077 156.721,118.6615 295.497,118.6615 138.776,0 236.877,-39.5538 295.498,-118.6615 57.424,-79.1077 86.137,-221.0363 86.137,-423.4589 l 0,-1040.0333 157.917,0 0,1098.2007 c 0,222.1996 -52.639,388.5584 -155.525,499.0765 -104.082,111.6815 -259.607,167.5222 -468.967,167.5222 -92.119,0 -180.649,-16.2868 -266.786,-48.8606 -84.94,-32.5738 -154.328,-77.9444 -209.36,-133.7851 -53.836,-55.8407 -92.119,-118.6615 -116.046,-189.6258 -22.73,-69.8009 -33.497,-168.6855 -33.497,-294.3272 l 0,-1098.2007 z m 2167.779,1764.7994 -735.753,-1764.7994 348.137,0 471.36,1173.8184 447.434,-1173.8184 171.077,0 -702.255,1764.7994 z m 1247.788,-43.0439 -325.406,0 0,-1721.7555 325.406,0 0,1721.7555 z m 604.153,-566.5507 515.627,0 -258.412,-628.208 -257.215,628.208 z m -385.222,566.5507 727.377,-1755.4927 756.092,1755.4927 -349.333,0 -184.237,-458.3593 -610.138,0 -183.041,458.3593 -156.72,0 z m 3091.359,-407.1719 c -69.388,145.4185 -165.096,255.9366 -288.32,333.881 -123.223,76.781 -266.785,116.3348 -430.684,116.3348 -242.859,0 -443.845,-84.9244 -605.352,-253.6099 -160.31,-169.8489 -240.465,-386.2318 -240.465,-649.1485 0,-257.0998 81.351,-471.1559 246.447,-642.1682 165.096,-171.0122 369.671,-257.1 612.529,-257.1 149.544,0 277.553,30.2471 386.42,89.5778 108.868,59.3308 199.79,147.7453 271.571,266.4068 l -106.475,72.1277 c -53.836,-104.7014 -122.027,-183.8091 -203.379,-236.1598 -80.155,-52.3507 -173.47,-77.9443 -279.945,-77.9443 -177.059,0 -318.228,70.9642 -422.31,212.8927 -102.886,143.0919 -155.525,337.3711 -155.525,584.0008 0,238.4864 49.05,422.2955 148.347,553.7539 99.297,131.4583 238.073,197.7692 416.328,197.7692 119.635,0 224.913,-32.5737 317.032,-96.5579 92.119,-63.9842 167.489,-157.0521 226.11,-281.5304 l 107.671,67.4743 z m 270.374,407.1719 0,-1721.7555 1095.853,0 0,129.1316 -768.054,0 0,630.5347 714.218,0 0,129.1317 -714.218,0 0,703.8259 768.054,0 0,129.1316 -1095.853,0 z"
     id="path63"
     style="fill:url(#id4);fill-rule:nonzero"
     inkscape:connector-curvature="0" /></svg>