<?xml version="1.0" encoding="UTF-8" standalone="no"?>
<svg
   xmlns:dc="http://purl.org/dc/elements/1.1/"
   xmlns:cc="http://creativecommons.org/ns#"
   xmlns:rdf="http://www.w3.org/1999/02/22-rdf-syntax-ns#"
   xmlns:svg="http://www.w3.org/2000/svg"
   xmlns="http://www.w3.org/2000/svg"
   xmlns:sodipodi="http://sodipodi.sourceforge.net/DTD/sodipodi-0.dtd"
   xmlns:inkscape="http://www.inkscape.org/namespaces/inkscape"
   id="Pagina_inicia_Movil"
   data-name="Pagina inicia Movil"
   viewBox="0 0 62.8 62.8"
   version="1.1"
   sodipodi:docname="servicio-3.svg"
   inkscape:version="0.92.1 r15371">
  <metadata
     id="metadata4033">
    <rdf:RDF>
      <cc:Work
         rdf:about="">
        <dc:format>image/svg+xml</dc:format>
        <dc:type
           rdf:resource="http://purl.org/dc/dcmitype/StillImage" />
        <dc:title>servicio-3</dc:title>
      </cc:Work>
    </rdf:RDF>
  </metadata>
  <sodipodi:namedview
     pagecolor="#ffffff"
     bordercolor="#666666"
     borderopacity="1"
     objecttolerance="10"
     gridtolerance="10"
     guidetolerance="10"
     inkscape:pageopacity="0"
     inkscape:pageshadow="2"
     inkscape:window-width="1366"
     inkscape:window-height="705"
     id="namedview4031"
     showgrid="false"
     inkscape:zoom="3.7579618"
     inkscape:cx="-17.695762"
     inkscape:cy="31.4"
     inkscape:window-x="-8"
     inkscape:window-y="-8"
     inkscape:window-maximized="1"
     inkscape:current-layer="Pagina_inicia_Movil" />
  <defs
     id="defs4020">
    <style
       id="style4018">.cls-1{fill:#12afaf;}.cls-2{fill:#fff;}</style>
  </defs>
  <title
     id="title4022">servicio-3</title>
  <circle
     class="cls-1"
     cx="31.4"
     cy="31.4"
     r="31.4"
     id="circle4024" />
  <path
     style="fill:#f2f2f2;stroke-width:0.20194808"
     d="m 26.009494,52.392731 -1.230827,-1.1804 h -4.521799 c -3.941116,0 -4.53803,-0.04015 -4.648224,-0.312677 -0.08785,-0.217265 0.466384,-0.877622 1.816296,-2.164066 1.068499,-1.018265 2.061177,-1.851389 2.205948,-1.851389 0.440197,0 0.300409,-0.27915 -0.520932,-1.040283 l -0.784152,-0.72667 -1.646773,1.572044 c -0.905725,0.864623 -1.765567,1.572042 -1.910763,1.572042 -0.206235,0 -0.263989,-1.003376 -0.263989,-4.586424 v -4.586425 l -0.581326,-0.528553 -0.581325,-0.528554 -0.703147,0.688481 c -0.386731,0.378664 -0.798749,0.688479 -0.915597,0.688479 -0.116846,0 -0.737093,-0.492704 -1.378326,-1.094897 L 9.1786807,37.21854 7.3755247,39.585862 C 6.383788,40.887888 5.4895698,42.001747 5.3883716,42.061101 4.9620473,42.311153 4.9799405,41.574474 5.4920753,37.791408 l 0.5401438,-3.989969 2.8339706,-2.705082 c 1.6937223,-1.616693 2.9953353,-2.705081 3.2350273,-2.705081 0.22058,0 0.556509,0.13351 0.746507,0.296693 0.30988,0.266137 0.384247,0.256011 0.722181,-0.09837 0.351194,-0.368283 0.353474,-0.419446 0.03365,-0.754835 -0.492173,-0.516119 -0.42732,-0.867152 0.278822,-1.509191 l 0.621904,-0.565447 v -5.668455 c 0,-4.448314 0.05662,-5.668457 0.263015,-5.668457 0.144659,0 1.170799,0.864751 2.280312,1.921669 l 2.017297,1.921669 v 3.729119 3.729119 l 1.289644,1.234876 1.289643,1.234876 -1.289643,1.234876 -1.289644,1.234875 v 3.540522 3.540519 l 1.619124,1.527571 c 1.609802,1.518779 1.621328,1.525266 2.001486,1.126601 0.210306,-0.220534 0.481232,-0.40097 0.602073,-0.40097 0.120833,0 1.861361,1.549275 3.867839,3.442832 l 3.648133,3.442831 h 8.283069 8.283069 l 1.913441,1.823479 c 1.052388,1.002914 1.913442,1.976744 1.913442,2.164066 0,0.318533 -0.688378,0.340587 -10.630678,0.340587 h -10.63067 l -1.230827,1.1804 c -0.676959,0.64922 -1.283308,1.180399 -1.347456,1.180399 -0.06412,0 -0.670506,-0.531179 -1.347457,-1.180399 z m 1.506578,-7.619997 -4.196066,-3.985707 -2.128477,2.013098 -2.12848,2.0131 4.196061,3.985706 4.196056,3.985708 2.128477,-2.013098 2.128486,-2.013099 z m -3.683245,5.652664 c 0,-0.12344 -1.312903,-0.196733 -3.524117,-0.196733 -2.211212,0 -3.524118,0.0733 -3.524118,0.196733 0,0.12344 1.312906,0.196733 3.524118,0.196733 2.211214,0 3.524117,-0.0733 3.524117,-0.196733 z m 26.119941,0 c 0,-0.128303 -3.316812,-0.196733 -9.535848,-0.196733 -6.219035,0 -9.535856,0.06842 -9.535856,0.196733 0,0.128304 3.316821,0.196733 9.535856,0.196733 6.219036,0 9.535848,-0.06842 9.535848,-0.196733 z M 21.967123,48.556432 c -0.783919,-0.753311 -1.287744,-1.082033 -1.658413,-1.082033 -0.370667,0 -0.874492,0.328722 -1.658408,1.082033 l -1.125994,1.082033 h 2.784402 2.784407 z m 26.11994,0 -1.125993,-1.082033 h -7.767835 -7.767834 l 0.594488,0.588876 0.59448,0.588874 -0.488186,0.493159 -0.488185,0.493157 h 8.787534 8.787525 z M 15.537611,43.577307 c -0.0017,-1.806019 -0.0936,-3.416466 -0.204128,-3.578771 -0.13369,-0.196326 -0.202014,0.943454 -0.204125,3.40526 -0.0021,2.41755 0.06868,3.658207 0.204125,3.578771 0.125018,-0.07333 0.206042,-1.42499 0.204128,-3.40526 z m 2.90539,-0.135939 c 0,-0.471004 -0.250525,-0.83844 -1.140157,-1.672233 l -1.140155,-1.068592 v 2.740825 2.740824 L 17.302844,45.1136 c 0.889632,-0.833793 1.140157,-1.201229 1.140157,-1.672232 z m 0.370276,-4.960473 -2.951776,-2.806306 -0.99218,0.927442 -0.992179,0.927441 2.951775,2.806306 2.951776,2.806306 0.99218,-0.927442 0.992179,-0.927441 z M 7.6449057,38.111225 8.6764187,36.715747 7.6591687,35.76487 C 6.4919586,34.673821 6.5536605,34.6105 6.2175848,37.244271 6.0864181,38.272202 5.931498,39.423091 5.8733152,39.801803 L 5.7675353,40.49037 6.1904657,39.998536 c 0.2326114,-0.270508 0.887111,-1.119797 1.454445,-1.887311 z m 6.9142003,-6.815408 -2.432666,-2.314683 -2.6460893,2.505622 -2.646091,2.505622 2.432665,2.314684 2.4326653,2.314682 2.646091,-2.505622 2.646089,-2.505622 z m 3.883895,2.875001 c 0,-2.564873 -0.03452,-2.849534 -0.318448,-2.625908 -0.265948,0.209467 -0.412979,0.164863 -0.891873,-0.270556 -0.445384,-0.404952 -0.628866,-0.468759 -0.821709,-0.285746 -0.428961,0.407093 -0.275255,0.839016 0.580922,1.632432 0.456063,0.42263 0.829204,0.86588 0.829204,0.984999 0,0.119121 -0.327415,0.517747 -0.72759,0.88584 l -0.727588,0.669256 0.978923,0.9432 c 0.538407,0.518762 1.005751,0.943203 1.038541,0.943203 0.03279,0 0.05962,-1.294524 0.05962,-2.87672 z m -2.626549,-3.578475 c 0.319115,-0.334644 0.289681,-0.403025 -0.480839,-1.117062 -0.807374,-0.74819 -0.827709,-0.754635 -1.246331,-0.395102 l -0.425566,0.3655 0.773305,0.751564 c 0.88868,0.863695 0.92316,0.87357 1.379431,0.3951 z m 3.458036,-1.121223 1.337764,-1.280951 -1.913571,-1.81602 -1.91357,-1.816021 -1.396419,1.32523 -1.396418,1.325232 1.858264,1.771742 c 1.022046,0.974458 1.909547,1.771743 1.972225,1.771743 0.06268,0 0.715956,-0.57643 1.451725,-1.280955 z m -3.733703,-9.145908 c 0,-2.788882 -0.07888,-4.547905 -0.207302,-4.623232 -0.136011,-0.07977 -0.207301,1.510116 -0.207301,4.623232 0,3.113115 0.07129,4.703006 0.207301,4.623231 0.128429,-0.07533 0.207302,-1.834349 0.207302,-4.623231 z m 1.767406,-2.744914 -1.145502,-1.087107 v 3.757694 3.757695 l 0.466427,-0.08441 c 0.325324,-0.05887 0.654566,0.102189 1.088331,0.532423 l 0.621903,0.616836 0.05717,-3.20301 0.05717,-3.20301 z M 49.689756,47.323329 47.672459,45.401661 V 32.318905 19.236149 l 2.135257,-2.019507 c 1.174388,-1.110729 2.200531,-1.95756 2.280309,-1.881846 0.0798,0.07571 0.145059,7.736484 0.145059,17.023933 0,13.511035 -0.05254,16.886269 -0.263019,16.886269 -0.144656,0 -1.1708,-0.86475 -2.280309,-1.921669 z m 1.869547,-22.999594 c -0.03111,-4.417355 -0.05656,-0.860628 -0.05656,7.903839 -1.6e-5,8.764465 0.02545,12.378666 0.05656,8.031553 0.03111,-4.34711 0.03111,-11.518037 2.4e-5,-15.935392 z M 50.574674,32.18511 V 17.289288 l -1.140154,1.068591 -1.140155,1.068592 v 12.788195 12.788196 l 1.081244,1.039035 c 0.594685,0.57147 1.107761,1.039036 1.140155,1.039036 0.03243,0 0.05895,-6.70312 0.05895,-14.895823 z M 24.04013,31.489213 c 0,-0.336795 25.030888,-24.0671087 25.208423,-23.8986236 0.07791,0.073919 0.126819,1.3980449 0.108729,2.9424976 l -0.03292,2.808094 -9.68726,9.19728 -9.68726,9.197279 h -2.954871 c -2.229591,0 -2.95487,-0.06051 -2.95487,-0.246527 z M 37.091809,20.037983 C 43.528375,13.928826 48.748013,8.8861613 48.691008,8.8320623 48.634032,8.7779591 43.274427,13.776363 36.780855,19.939619 c -6.493581,6.163257 -11.71322,11.205922 -11.5992,11.205922 0.114019,0 5.473587,-4.998402 11.910154,-11.107558 z m 2.143442,2.097231 9.49265,-9.010325 -0.06133,-1.516703 -0.06132,-1.516705 -11.089885,10.52703 -11.089884,10.52703 h 1.658534 1.658525 z"
     id="path4106"
     inkscape:connector-curvature="0" />
</svg>
