<?xml version="1.0" encoding="UTF-8" standalone="no"?>
<svg
   xmlns:dc="http://purl.org/dc/elements/1.1/"
   xmlns:cc="http://creativecommons.org/ns#"
   xmlns:rdf="http://www.w3.org/1999/02/22-rdf-syntax-ns#"
   xmlns:svg="http://www.w3.org/2000/svg"
   xmlns="http://www.w3.org/2000/svg"
   xmlns:sodipodi="http://sodipodi.sourceforge.net/DTD/sodipodi-0.dtd"
   xmlns:inkscape="http://www.inkscape.org/namespaces/inkscape"
   id="Pagina_inicia_Movil"
   data-name="Pagina inicia Movil"
   viewBox="0 0 62.2 62.2"
   version="1.1"
   sodipodi:docname="servicio-1.svg"
   inkscape:export-filename="C:\Users\meli_\Documents\recursos\Proyecto final\images\servicio-1.png"
   inkscape:export-xdpi="96"
   inkscape:export-ydpi="96"
   inkscape:version="0.92.1 r15371">
  <metadata
     id="metadata3928">
    <rdf:RDF>
      <cc:Work
         rdf:about="">
        <dc:format>image/svg+xml</dc:format>
        <dc:type
           rdf:resource="http://purl.org/dc/dcmitype/StillImage" />
        <dc:title>servicio-1</dc:title>
      </cc:Work>
    </rdf:RDF>
  </metadata>
  <sodipodi:namedview
     pagecolor="#ffffff"
     bordercolor="#666666"
     borderopacity="1"
     objecttolerance="10"
     gridtolerance="10"
     guidetolerance="10"
     inkscape:pageopacity="0"
     inkscape:pageshadow="2"
     inkscape:window-width="1366"
     inkscape:window-height="705"
     id="namedview3926"
     showgrid="false"
     inkscape:zoom="3.7942122"
     inkscape:cx="93.0736"
     inkscape:cy="-6.5446736"
     inkscape:window-x="-8"
     inkscape:window-y="-8"
     inkscape:window-maximized="1"
     inkscape:current-layer="Pagina_inicia_Movil" />
  <defs
     id="defs3917">
    <style
       id="style3915">.cls-1{fill:#12afaf;}.cls-2{fill:#fff;}</style>
  </defs>
  <title
     id="title3919">servicio-1</title>
  <circle
     class="cls-1"
     cx="31.1"
     cy="31.1"
     r="31.1"
     id="circle3921" />
  <path
     style="fill:#fff6d5;stroke-width:0.14331275"
     d="m 57.950803,-43.535173 v -20.493725 h 21.281943 21.281944 v 20.493725 20.493721 H 79.232746 57.950803 Z m 0.859877,0.286624 V -63.16902 h 20.493723 20.493722 v 19.920471 c 0,17.611542 0.02491,19.920476 0.214975,19.920476 0.19006,0 0.21497,-2.340777 0.21497,-20.2071 V -63.74227 H 79.232746 58.237429 v 20.207097 c 0,20.111556 0.0013,20.2071 0.286626,20.2071 0.285249,0 0.286625,-0.09554 0.286625,-19.920476 z m 12.181583,19.492237 v -0.428238 l -5.481713,-0.03753 -5.481713,-0.03753 -0.03635,-18.881453 -0.03635,-18.881451 h 5.518072 5.518068 v -0.429937 -0.429942 h -5.947484 -5.94748 v 19.777161 19.777161 h 5.94748 5.947478 z M 91.342677,-43.105234 V -62.882392 H 81.31078 71.278889 v 19.777158 19.777161 H 81.31078 91.342677 Z m -19.137778,18.738142 c -0.0375,-0.09853 -0.0516,-8.595185 -0.03132,-18.881457 l 0.03684,-18.702311 9.064531,-0.0369 9.064531,-0.0369 v 18.918352 18.918358 h -9.0332 c -7.094654,0 -9.047833,-0.03845 -9.101385,-0.179142 z m 5.666377,-18.741305 v -18.633821 l -2.687115,0.03898 -2.687113,0.03898 -0.03635,18.594826 -0.03637,18.594831 h 2.723479 2.723478 z m 1.218158,0.0033 v -18.559135 l -0.465766,-0.04489 -0.465768,-0.04489 v 18.648815 18.648818 l 0.465768,-0.04491 0.465766,-0.0449 z m 10.963428,0 v -18.630785 h -5.279069 -5.279065 l -0.09504,8.921218 c -0.122757,11.52326 -0.122607,28.121694 3.78e-4,28.244551 0.05251,0.05254 2.470919,0.09554 5.374196,0.09554 h 5.27869 z m 0.573249,0 c 0,-1.687909 0.03412,-2.00638 0.214972,-2.00638 0.180842,0 0.214966,0.318471 0.214966,2.00638 0,1.687903 -0.03412,2.006375 -0.214966,2.006375 -0.180849,0 -0.214972,-0.318472 -0.214972,-2.006375 z m 0.02719,-3.260365 c 0.02449,-0.295585 0.108972,-0.537424 0.187796,-0.537424 0.07883,0 0.163325,0.241839 0.187792,0.537424 0.03461,0.418254 -0.0071,0.537419 -0.187792,0.537419 -0.180771,0 -0.222408,-0.119165 -0.187796,-0.537419 z m 8.822895,3.224486 -0.03634,-19.812984 -3.905275,-0.03812 -3.905275,-0.03812 v 19.851114 19.851124 h 3.941608 3.941604 z m -28.483915,0.03586 v -18.630748 h -5.37423 -5.37423 v 18.630656 18.630656 h 5.37423 5.374228 z"
     id="path21"
     inkscape:connector-curvature="0" />
  <path
     style="fill:#ececec;stroke-width:0.07173441"
     d="M 16.852701,51.774319 C 15.293771,51.52705 14.033656,50.89136 12.88284,49.77167 11.887617,48.803357 11.270178,47.733034 10.876604,46.293896 l -0.189002,-0.691104 -0.02338,-6.742405 c -0.01293,-3.708316 -0.0054,-6.813965 0.01656,-6.901435 0.03621,-0.14464 0.09014,-0.160914 0.595239,-0.179961 l 0.55533,-0.02099 0.01851,-4.582747 0.01842,-4.582757 0.882197,-0.910551 c 0.485215,-0.500798 1.135045,-1.246964 1.444079,-1.658141 0.309025,-0.411177 0.59949,-0.756806 0.645447,-0.76807 0.09329,-0.02285 3.79267,3.749073 3.829445,3.904543 0.01283,0.05427 -0.04047,0.203232 -0.118463,0.331064 -0.07801,0.127823 -0.241407,0.567549 -0.363164,0.977169 -0.121741,0.409617 -0.258003,0.788916 -0.302783,0.84288 -0.0626,0.07535 -0.343134,0.09811 -1.212031,0.09811 -1.111836,0 -1.131326,0.0026 -1.173867,0.161403 -0.0565,0.210653 -0.0565,5.85091 0,6.061564 0.04188,0.156284 0.0712,0.161401 0.92573,0.161401 h 0.882462 l 0.144923,-0.448341 c 0.163208,-0.504926 0.298682,-0.956439 1.232248,-4.106795 0.694442,-2.343465 0.73993,-2.466647 1.044784,-2.828936 0.151733,-0.180324 0.193706,-0.308581 0.201311,-0.615127 0.008,-0.322564 0.04445,-0.423662 0.218004,-0.604829 0.303048,-0.316321 0.556729,-0.336467 1.350322,-0.107243 0.374606,0.108199 0.725267,0.179599 0.779238,0.158673 0.05738,-0.02223 0.362341,-0.928685 0.733787,-2.180893 0.349607,-1.178568 0.870941,-2.933712 1.158529,-3.900334 0.287577,-0.966619 0.76994,-2.590064 1.071925,-3.607653 0.301977,-1.017588 0.531022,-1.906966 0.508991,-1.976394 -0.02206,-0.06943 0.0036,-0.546108 0.05738,-1.05929 l 0.09739,-0.9330553 0.577193,-1.2152797 c 0.469062,-0.9876479 0.602039,-1.2109343 0.709929,-1.1920924 0.07305,0.012752 0.399064,0.103477 0.72456,0.2016109 0.702402,0.2117668 0.667045,0.073161 0.447607,1.7547463 -0.141638,1.0853532 -0.151396,1.1190932 -0.548175,1.8941162 -0.222184,0.433993 -0.463838,0.865918 -0.537025,0.959835 -0.07314,0.09392 -0.200312,0.400581 -0.282522,0.681477 -0.08217,0.280896 -0.403748,1.366153 -0.714535,2.411682 -1.180322,3.970814 -2.002365,6.737715 -2.250662,7.57538 -0.141549,0.47751 -0.257347,0.919982 -0.257347,0.98326 0,0.08315 0.197787,0.1761 0.712224,0.334846 0.556045,0.171593 0.752681,0.267857 0.896684,0.438991 0.258107,0.30675 0.255567,0.758279 -0.0062,1.069154 -0.167697,0.199301 -0.188675,0.281362 -0.175542,0.686846 0.01664,0.512708 -0.01089,0.623503 -0.861185,3.464287 -0.311396,1.040411 -0.566167,1.952335 -0.566167,2.026496 0,0.127788 0.08058,0.134862 1.538058,0.134862 0.845927,0 1.554395,-0.02647 1.574363,-0.05871 0.02001,-0.03232 -0.335359,-0.427746 -0.789616,-0.878744 -0.454257,-0.450998 -0.857119,-0.876353 -0.89525,-0.945236 -0.05074,-0.09167 0.03711,-0.484896 0.327577,-1.467377 0.247056,-0.835443 0.396903,-1.476151 0.396903,-1.697078 0,-0.241779 0.06278,-0.482885 0.196989,-0.756384 0.358552,-0.730668 0.219111,-1.569485 -0.338946,-2.03907 -0.120995,-0.101797 -0.41293,-0.255451 -0.648759,-0.341435 -0.456869,-0.166582 -0.496788,-0.23581 -0.353451,-0.612834 0.07447,-0.195918 0.121165,-0.152351 4.203812,3.922787 2.270674,2.266504 4.239152,4.290379 4.374414,4.497517 0.217206,0.332614 0.274498,0.376607 0.490554,0.376607 0.134553,0 0.263792,-0.031 0.287215,-0.06889 0.110918,-0.179475 -0.421158,-0.957828 -1.224047,-1.790595 -0.573236,-0.594567 -0.820885,-0.900528 -0.79131,-0.977629 0.04127,-0.107447 0.449308,-0.597727 4.206264,-5.053679 0.914793,-1.084987 1.70882,-2.040327 1.764518,-2.12298 0.08973,-0.133172 0.08173,-0.194494 -0.07031,-0.538355 -0.415605,-0.939773 -0.50977,-1.447655 -0.510735,-2.754612 -7.36e-4,-1.139484 0.01266,-1.264194 0.205695,-1.900963 0.350829,-1.157331 0.858563,-2.027543 1.689285,-2.895308 0.60567,-0.632665 1.186891,-1.045876 2.024149,-1.439006 0.81133,-0.380965 1.708766,-0.612783 2.457659,-0.634844 0.508043,-0.01496 0.568089,-0.0018 0.693823,0.152967 0.170682,0.209989 0.177243,0.566525 0.0147,0.801036 -0.06765,0.09755 -0.674342,0.871395 -1.34832,1.719654 -0.673988,0.848259 -1.301875,1.646161 -1.395305,1.773114 l -0.169885,0.230822 0.778194,1.726114 c 0.428002,0.949363 0.812597,1.754172 0.854649,1.788459 0.09286,0.07571 3.413601,0.723701 3.685399,0.719149 0.159914,-0.0026 0.309795,-0.152148 0.874476,-0.872129 2.388278,-3.045118 2.346854,-2.998293 2.652443,-2.998293 0.561997,0 0.767409,0.63452 0.699809,2.161663 -0.0472,1.066234 -0.222059,1.776748 -0.659615,2.68041 -1.297271,2.679169 -4.185552,4.228853 -7.150324,3.83645 -0.678698,-0.08983 -0.721593,-0.08767 -0.847999,0.04303 -0.07323,0.07571 -0.948406,1.251321 -1.944852,2.61249 -0.996428,1.361151 -2.000045,2.729882 -2.230252,3.041599 -0.230214,0.311726 -0.418561,0.610328 -0.418561,0.663547 0,0.08023 0.820733,0.09677 4.804832,0.09677 h 4.804842 l 0.03967,-0.161402 c 0.06198,-0.25229 0.0062,-6.101032 -0.0596,-6.233159 -0.04694,-0.09438 0.0079,-0.143151 0.275341,-0.245313 0.903396,-0.345002 2.145241,-1.232619 2.867737,-2.049722 0.197274,-0.223104 0.399029,-0.42415 0.448343,-0.446775 0.07119,-0.03268 0.08966,0.879815 0.08966,4.434151 0,2.461404 0.01957,4.52634 0.04348,4.58875 0.03462,0.09022 0.159613,0.11347 0.609743,0.11347 h 0.566203 v 6.699422 c 0,6.48684 -0.0044,6.72289 -0.148375,7.439532 -0.529818,2.642872 -2.331882,4.713431 -4.832958,5.553009 -1.206576,0.405032 -0.724611,0.393404 -16.000984,0.386152 -10.983975,-0.0053 -14.185488,-0.02656 -14.633812,-0.0977 z m 3.102991,-20.070075 c 0.146047,-0.182264 1.452137,-4.771316 1.452137,-5.102169 0,-0.936638 -1.247655,-1.178887 -1.687824,-0.327709 -0.114053,0.220562 -1.611944,5.244293 -1.611944,5.406262 0,0.09713 0.126645,0.113292 0.88789,0.113292 0.624177,0 0.90924,-0.02665 0.959741,-0.08968 z m 3.222809,0 c 0.05438,-0.08474 0.531961,-1.646312 1.035789,-3.38638 0.21285,-0.735123 0.221103,-0.804645 0.127319,-1.07368 -0.123317,-0.353796 -0.483108,-0.615251 -0.846149,-0.614879 -0.286081,2.91e-4 -0.676086,0.205332 -0.787873,0.414188 -0.103205,0.192846 -1.371485,4.466656 -1.371485,4.621603 0,0.117037 0.08164,0.128824 0.892452,0.128824 0.635459,0 0.909001,-0.02577 0.949947,-0.08968 z m 5.097989,-8.500521 c -1.216096,-1.21321 -2.228656,-2.274846 -2.25013,-2.359191 -0.04666,-0.183256 1.196942,-4.474245 1.35381,-4.671315 0.05667,-0.07109 1.031254,-0.08629 4.599783,-0.07173 l 4.527979,0.01846 -0.02497,1.076016 c -0.02657,1.141887 0.06969,1.927156 0.347349,2.833515 0.07854,0.256451 0.143081,0.488535 0.143382,0.515754 2.84e-4,0.02718 -0.441285,0.575981 -0.981312,1.21948 -0.540019,0.643508 -1.399344,1.670352 -1.9096,2.281894 -0.510265,0.611532 -0.992,1.168376 -1.070527,1.237409 -0.123714,0.108794 -0.301692,0.12554 -1.3337,0.12554 H 30.487627 Z M 16.999208,20.461868 c -1.753104,-1.750386 -2.496869,-2.44782 -2.591087,-2.429675 -0.07908,0.01523 -0.150608,0.111737 -0.178085,0.240219 -0.135031,0.631351 -0.540815,1.189638 -1.850652,2.546139 L 11.444278,21.786962 9.5268853,19.886004 C 8.4723246,18.840475 7.6155327,17.959835 7.6229002,17.929028 c 0.019215,-0.08007 1.8439569,-1.845555 2.2700021,-2.196218 0.4013037,-0.330306 0.8874657,-0.580728 1.1305997,-0.582375 0.223572,-0.0016 0.276978,-0.04853 0.581876,-0.512228 0.429659,-0.65345 1.23386,-1.369235 1.774127,-1.579066 0.253193,-0.09834 0.686313,-0.348755 0.962494,-0.556484 0.608115,-0.457404 1.883992,-1.091319 2.618309,-1.300897 0.670649,-0.191412 2.296097,-0.27171 2.939145,-0.145196 0.648555,0.127596 1.130724,0.284306 1.253978,0.407559 0.14857,0.148575 0.140707,0.482585 -0.01462,0.61966 -0.06908,0.06095 -0.367638,0.150467 -0.663538,0.198947 -0.658695,0.10792 -1.317744,0.348409 -1.863758,0.680095 -0.780151,0.47391 -1.783999,1.712025 -2.023503,2.495721 l -0.07057,0.230995 2.803875,2.794728 c 1.940345,1.934014 2.801945,2.83981 2.797615,2.941113 -0.0036,0.08049 -0.07633,0.356204 -0.161995,0.612656 -0.148951,0.445987 -0.165067,0.465336 -0.370346,0.444677 -0.118038,-0.01186 -0.493326,-0.02798 -0.83399,-0.03587 -0.59918,-0.01381 -0.630384,-0.0062 -0.956917,0.227939 l -0.337537,0.242213 z m 4.19717,-3.080628 c -0.637212,-0.635766 -1.138932,-1.187714 -1.114936,-1.226549 0.05844,-0.09459 2.952801,-0.0949 3.011253,-3.59e-4 0.04747,0.07683 -0.578255,2.223273 -0.676909,2.321959 -0.03347,0.03347 -0.582196,-0.459306 -1.219408,-1.095072 z m 24.33349,0.650186 c -0.529349,-0.105883 -0.993584,-0.237444 -1.04962,-0.297454 -0.157151,-0.168316 -0.709354,-1.490876 -0.657499,-1.574772 0.03037,-0.04919 0.685863,-0.07512 1.899611,-0.07512 1.623687,0 1.858576,-0.01405 1.896725,-0.113469 0.02399,-0.0624 0.04347,-0.704565 0.04347,-1.427013 0,-1.131609 0.01576,-1.319577 0.113469,-1.357089 0.172001,-0.06599 3.280367,-0.04993 3.386673,0.0175 0.06677,0.04236 0.08686,0.227976 0.07173,0.662447 l -0.02099,0.603597 -0.466275,0.04151 c -0.54766,0.04875 -0.939949,0.234671 -1.299687,0.615958 -0.142744,0.151295 -0.764025,0.912622 -1.380632,1.691837 -1.298288,1.640656 -1.03152,1.513206 -2.537027,1.212067 z"
     id="path287"
     inkscape:connector-curvature="0" />
</svg>
